/* XPM */
static char *result[] = {
/* columns rows colors chars-per-pixel */
"32 32 49 1 ",
"  c #0095E9",
". c #124E89",
"X c #008AD9",
"o c #007BC1",
"O c #0373B1",
"+ c #176A8D",
"@ c #0C6D9E",
"# c #0091E2",
"$ c #105F83",
"% c #254647",
"& c #403D1F",
"* c #72550F",
"= c #926B11",
"- c #785D22",
"; c #7F611E",
": c #694F0F",
"> c #374A3B",
", c #0182CB",
"< c #14526C",
"1 c #494B29",
"2 c #815F12",
"3 c #9D7416",
"4 c #916D19",
"5 c #B59446",
"6 c #A88940",
"7 c #99782E",
"8 c #856826",
"9 c #A57914",
"0 c #008DDC",
"q c #1A5164",
"w c #5D4F1C",
"e c #A27714",
"r c #93732C",
"t c #B19045",
"y c #C19E4C",
"u c #A87B15",
"i c #986F12",
"p c #284F53",
"a c #8A6512",
"s c #1B6480",
"d c #8C6713",
"f c #565B36",
"g c #5A5D36",
"h c #815F11",
"j c #2B595F",
"k c #735B1A",
"l c #086493",
"z c #293B31",
"x c #3A584E",
/* pixels */
"                                ",
"                                ",
"         .                      ",
"        . .                     ",
"      ..   ..                   ",
"                      .         ",
"                     . .        ",
"                   ..   ..      ",
"                                ",
"                                ",
"               XoO++@O#         ",
"           #o$%&*==-;:>O        ",
"         ,<1234567347892<#      ",
"       0qw*223erty63e3uuip#     ",
"      #pi-6t6r494773uuuuua$     ",
"      seud86y58uuuuuuuuuuuf     ",
"      guuuuihd9uuuuuuuuuu9j     ",
"      fuuuuuuuuuuuuuuuuuukO     ",
"      juuuuuuuuuuuuuuuuu=q      ",
"      l=uuuuuuuuuuuuuuu=%X      ",
"      0zeuuuuuuuuuuuui1@        ",
"       X<wauuuuuuue21$X         ",
"         ,lj>w:kfxsOX           ",
"       .      #                 ",
"      . .                       ",
"    ..   ..               .     ",
"                         . .    ",
"                       ..   ..  ",
"                                ",
"                                ",
"                                ",
"                                "
};
