/* XPM */
static char *result[] = {
/* columns rows colors chars-per-pixel */
"32 32 72 1 ",
"  c #8E6947",
". c #8E6B4B",
"X c #906A47",
"o c #926D4A",
"O c #96714D",
"+ c #98734F",
"@ c #8E6E51",
"# c #957454",
"$ c #997553",
"% c #96795B",
"& c #9C7C5B",
"* c #A07F5D",
"= c #A1815E",
"- c #9C8062",
"; c #A48464",
": c #A78865",
"> c #A98966",
", c #A48669",
"< c #A6896B",
"1 c #AC8D6C",
"2 c #AF906F",
"3 c #B1906E",
"4 c #AC8F70",
"5 c #AE9173",
"6 c #B59573",
"7 c #B79876",
"8 c #B99977",
"9 c #B6997A",
"0 c #BC9D7B",
"q c #BFA07E",
"w c #C0A17F",
"e c #124E89",
"r c #0095E9",
"t c #0C95E9",
"y c #1595E8",
"u c #1A95E8",
"i c #2196E7",
"p c #3396E5",
"a c #3C97E4",
"s c #5699DD",
"d c #7C9DCD",
"f c #6C9BD5",
"g c #609BD9",
"h c #749BD2",
"j c #799DD0",
"k c #4497E2",
"l c #4897E0",
"z c #BFA181",
"x c #BFA58E",
"c c #BDA695",
"v c #B7A59D",
"b c #BAA69B",
"n c #959FBD",
"m c #9FA1B7",
"M c #9AA1BB",
"N c #AFA3A5",
"B c #A7A2AF",
"V c #ACA4AB",
"C c #B3A5A4",
"Z c #A4A2B3",
"A c #C3A583",
"S c #C7A886",
"D c #C2A68D",
"F c #C5A98C",
"G c #C9AA88",
"H c #C1A791",
"J c #C2A991",
"K c #869EC7",
"L c #8B9EC5",
"P c #839DCA",
"I c #929FC1",
"U c #92A0C2",
/* pixels */
"#@.===&%&###$$&,7Aq686761270AHCd",
",&==&&%&+X  XXo$*63676767zA70DnZ",
";;=&&&&$$ooXX X#+66701680qAA7SbI",
";==*&&=&#o.X..o%666806670q0AAcHL",
"&====&&=;,,,147qA144767qA05AGFHP",
"%:==$%###;>3670qAA*4170qASASSHBn",
"1:;=-#o .;3267qq9zz767009SqAFHGn",
":;::==-%;13678q9*9Sz60q07AGFGFBI",
"&=-:>>11133670ww00w7460SASSSDFMI",
"O$$;31133>,:29wq00050AGwASSGHcCj",
" O%56363,&#$&:0A70670qAS9SGGJMbj",
"<5976677;$oXo#0A16790ASSzSGDCDVj",
"q00808007,&#%5zA0670SGA9GGFcHVZh",
"Aqqq000qwAAAzA90w7wGAwAAGGBZCPMu",
"AAA9,&,zAAw09A9qA108AqSGGVIUIZhi",
"Sq0A5,5SAA70099766AqwSGGCbKPLLtr",
"w6qwwS9qAA70z9qq0SA0AGGcFLKbhMrr",
"8007000qqw0070qSAzSAGGcDZZLattrr",
"6q000700q667600zSzSSGJIjVLgtrrrr",
"88qwA67001w20q99ASSSFZCZMitrrrrr",
"8qq86786176wASqAASGbCfKPPkrrrrrr",
"0q9*676479S0ASSASSFCMLcsPprrrrrr",
"0qAq6167wAq0ASGGSSCUCmVPytrrrrrr",
"7qASA360q0qSASGGGbCLKNPurrrrrrrr",
"1w0A967q7qwASSSFMVdZhpurrrrrrrrr",
"100q000AAGASSSSmLVnNCLtrrrerrrrr",
"680qqSAqAAASSSZbVZZZMirrrererrrr",
"78qA9SSSASSGFBCCCZnPirreerrreerr",
"00ADCDSzGGCZMMLIhdhyrrrrrrrrrrrr",
"AxvDvcCDFbVMHZKdfrrrrrrrrrrrrrrr",
"BNCLVZPVBLVjBZgarrrrrrrrrrrrrrrr",
"KBmnCPZdhMjlirrrrrrrrrrrrrrrrrrr"
};
