/* XPM */
static char *result[] = {
/* columns rows colors chars-per-pixel */
"32 32 211 2 ",
"   c #191409",
".  c #18181A",
"X  c #32302E",
"o  c #39342E",
"O  c #313131",
"+  c #333435",
"@  c #442D1D",
"#  c #5C4010",
"$  c #61400F",
"%  c #745215",
"&  c #223142",
"*  c #2D374B",
"=  c #3F3F40",
"-  c #2D4057",
";  c #2A4059",
":  c #2D425A",
">  c #0E4B76",
",  c #1C4D77",
"<  c #3A526E",
"1  c #404141",
"2  c #464647",
"3  c #4C5564",
"4  c #465568",
"5  c gray38",
"6  c #656565",
"7  c #6B6C6C",
"8  c #726A61",
"9  c #6E7071",
"0  c gray44",
"q  c #7B7B7B",
"w  c #7A7B7E",
"e  c #7C7C7C",
"r  c gray49",
"t  c #7E7E7E",
"y  c #8C6A26",
"u  c #81624D",
"i  c #937F63",
"p  c #B98624",
"a  c #C99529",
"s  c #CE9A2B",
"d  c #CF9E48",
"f  c #C39751",
"g  c #124E89",
"h  c #005182",
"j  c #1A5E92",
"k  c #275C8A",
"l  c #2B5C89",
"z  c #2F5E8A",
"x  c #37628C",
"c  c #2C679D",
"v  c #316595",
"b  c #356597",
"n  c #126DAB",
"m  c #0571B1",
"M  c #0772B3",
"N  c #0074B7",
"B  c #0075B9",
"V  c #4B6084",
"C  c #606B8F",
"Z  c #736D80",
"A  c #777386",
"S  c #75768F",
"D  c #4E7AB3",
"F  c #0D7CC2",
"G  c #4B80BD",
"H  c #6A89AF",
"J  c #6F8BAF",
"K  c #7D8EA7",
"L  c #7B8FAC",
"P  c #7A8FAD",
"I  c #6E8BB0",
"U  c #658DBC",
"Y  c #7E94B2",
"T  c #038BDA",
"R  c #008DDD",
"E  c #008EDF",
"W  c #078FDF",
"Q  c #1D8FDF",
"!  c #2A83C8",
"~  c #3F88C8",
"^  c #258FDD",
"/  c #398BD0",
"(  c #2A92DF",
")  c #3B93DE",
"_  c #0090E1",
"`  c #0093E6",
"'  c #0094E7",
"]  c #0E92E4",
"[  c #0095E9",
"{  c #0995E8",
"}  c #1194E6",
"|  c #1194E7",
" . c #1795E7",
".. c #2193E2",
"X. c #2B93E0",
"o. c #3A97E5",
"O. c #418BCE",
"+. c #468CCE",
"@. c #468ECF",
"#. c #4A8DCC",
"$. c #4E8ECC",
"%. c #5C8EC3",
"&. c #588FC8",
"*. c #478FD1",
"=. c #4690D3",
"-. c #4790D3",
";. c #4890D2",
":. c #4292D8",
">. c #5090D2",
",. c #5B94D0",
"<. c #5B9ADD",
"1. c #808081",
"2. c #858686",
"3. c gray53",
"4. c gray55",
"5. c gray56",
"6. c #868D98",
"7. c #909090",
"8. c #919192",
"9. c #929292",
"0. c #939394",
"q. c #969797",
"w. c #979797",
"e. c #93979D",
"r. c #989898",
"t. c gray60",
"y. c #9B9B9B",
"u. c #9D9D9F",
"i. c #A49188",
"p. c #AA9B9D",
"a. c #BBA292",
"s. c #8E96A2",
"d. c #9097A2",
"f. c #9492A5",
"g. c #9F9FA0",
"h. c #8F98B9",
"j. c #9FA6B1",
"k. c #A0A0A0",
"l. c gray63",
"z. c #A2A2A2",
"x. c #A4A4A7",
"c. c #A7A7A7",
"v. c #A4A6AA",
"b. c #A9A9A9",
"n. c #AAAAAA",
"m. c gray67",
"M. c gray68",
"N. c #ACACAE",
"B. c #AEAEAE",
"V. c gray69",
"C. c #B2B2B2",
"Z. c gray70",
"A. c #B2B3B4",
"S. c #B3B3B6",
"D. c #B7B7B7",
"F. c gray72",
"G. c gray73",
"H. c #BABBBB",
"J. c #BBBBBC",
"K. c gray",
"L. c #8DA7CA",
"P. c #BFBFC0",
"I. c #C0C0C0",
"U. c #C3C3C3",
"Y. c #C6C6C6",
"T. c gray78",
"R. c #C8C8C8",
"E. c #CFCFCE",
"W. c gray81",
"Q. c #D2D2D1",
"!. c #D2D2D2",
"~. c LightGray",
"^. c #D1D1D4",
"/. c #D3D3D4",
"(. c gray83",
"). c #D5D5D5",
"_. c #D6D6D7",
"`. c #DADADA",
"'. c gainsboro",
"]. c #DCDCDD",
"[. c #DDDDDD",
"{. c gray87",
"}. c #DEDEDF",
"|. c #DFDFE0",
" X c #DFE0E0",
".X c #E1E1E2",
"XX c #E2E2E2",
"oX c #E2E2E3",
"OX c gray89",
"+X c #E4E4E4",
"@X c #E7E7E9",
"#X c gray91",
"$X c #E9E9E9",
"%X c #E8E8EA",
"&X c #E9E9EA",
"*X c #E9E9EB",
"=X c gray92",
"-X c #EAEAEC",
";X c #EBEBEC",
":X c #ECECEC",
">X c #EFEFEF",
",X c gray96",
"<X c #F6F6F6",
"1X c gray97",
"2X c #F8F8F8",
"3X c gray98",
"4X c #FBFBFB",
"5X c gray99",
"6X c #FDFDFD",
"7X c #FEFEFE",
"8X c white",
/* pixels */
"[ [ [ [ [ [ [ [ [ [ [ [ [ [ [ [ [ [ [ [ [ [ [ [ [ [ [ [ [ [ [ [ ",
"[ [ [ [ [ [ [ [ [ [ [ [ [ [ [ [ [ [ [ [ [ [ [ [ [ [ [ [ [ [ [ [ ",
"[ [ [ [ [ [ [ [ [ g [ [ [ [ [ [ [ [ [ [ [ [ [ [ [ [ [ [ [ [ [ [ ",
"[ [ [ [ [ [ [ [ g [ g [ [ [ [ [ [ [ [ [ [ [ [ [ [ [ [ [ [ [ [ [ ",
"[ [ [ [ [ [ g g [ [ [ g g [ [ [ [ [ [ [ [ [ [ [ [ [ [ [ [ [ [ [ ",
"[ [ [ [ [ [ [ [ [ [ [ [ [ [ [ [ [ [ [ [ [ [ g [ [ [ [ [ [ [ [ [ ",
"[ [ [ [ [ [ [ [ [ [ [ [ [ [ [ [ [ [ [ [ [ g [ g [ [ [ [ [ [ [ [ ",
"[ [ [ [ [ [ [ | %.J v m ' [ [ [ [ [ [ g g [ [ [ g g [ [ [ [ [ [ ",
"[ [ [ [ [ [ [ @.A.W.I.9 n ' [ [ [ [ [ [ [ [ [ [ [ [ [ [ [ [ [ [ ",
"[ [ [ [ [ [ ` L  X,X5XB.- E [ [ [ [ [ [ [ [ [ [ [ [ [ [ [ [ [ [ ",
"[ [ [ [ [ <.h.i H.r 7XG.: E [ [ [ [ [ [ [ [ [ [ [ [ [ [ [ [ [ [ ",
"[ [ [ [ o.a.s y 8 q.8X=X4 E [ [ [ [ [ [ [ [ [ [ [ [ [ [ [ [ [ [ ",
"[ [ [ [ [ ! j > X R.8X=X4 E [ [ [ [ [ [ [ [ [ [ [ [ [ [ [ [ [ [ ",
"[ [ [ [ [ [ [ R l l.,X!.; _ [ [ [ [ [ [ [ [ [ [ [ [ [ [ [ [ [ [ ",
"[ [ [ [ [ [ [ [ W P OX'.3 B F V $.$.X.[ [ [ [ [ [ [ [ [ [ [ [ [ ",
"[ [ [ [ [ [ [ [ [ +.^.4XS.6 5 9.r.w.K H *.} [ [ [ [ [ [ [ [ [ [ ",
"[ [ [ [ [ [ [ [ { U _.8X2XQ.U.!.(.(.Y.K.v.Y #.~ ,.:.[ [ [ [ [ [ ",
"[ [ [ [ [ [ [ [ ..6.{.8X8X8X3XW.W.!.!.2X#Xm.e 0 e j.L.( [ [ [ [ ",
"[ [ [ [ [ [ [ [ ;.e.XX8X8X:Xb.1.u.N.5.y.C.M.z.~.F.q 9.&.[ [ [ [ ",
"[ [ [ [ [ [ [ [ I c.$X8X<XP.x.].-X*XoXF.3.t.G.V.4.z O. .[ [ [ [ ",
"[ [ [ [ [ [ [ [ I c.$X8X/.>X6X2X&X%X+X).Z.t l.k.x E [ [ [ [ [ [ ",
"[ [ [ [ [ [ [ [ -.d.T.1X;X[.3X2X@X@X}.V.7.5 & k R [ [ [ [ [ [ [ ",
"[ [ [ [ [ [ [ [ [ =.s.D.`.E.F.|.3X8X8X{.n.O N ` [ [ [ [ [ [ [ [ ",
"[ [ [ [ [ [ [ g [ [ / < w 8.2.0.J..Xg.7 + h R [ [ [ [ [ [ [ [ [ ",
"[ [ [ [ [ [ g [ g [ [ _ M , o = 1 2 .   * T [ [ [ [ [ [ [ [ [ [ ",
"[ [ [ [ g g [ [ [ g g [ ^ Z $ @ c b # % u Q [ [ [ [ g [ [ [ [ [ ",
"[ [ [ [ [ [ [ [ [ [ [ [ G S C D p.d p a A ] [ [ [ g [ g [ [ [ [ ",
"[ [ [ [ [ [ [ [ [ [ [ [ [ [ [ [ >.f.f i.) [ [ g g [ [ [ g g [ [ ",
"[ [ [ [ [ [ [ [ [ [ [ [ [ [ [ [ [ [ [ [ [ [ [ [ [ [ [ [ [ [ [ [ ",
"[ [ [ [ [ [ [ [ [ [ [ [ [ [ [ [ [ [ [ [ [ [ [ [ [ [ [ [ [ [ [ [ ",
"[ [ [ [ [ [ [ [ [ [ [ [ [ [ [ [ [ [ [ [ [ [ [ [ [ [ [ [ [ [ [ [ ",
"[ [ [ [ [ [ [ [ [ [ [ [ [ [ [ [ [ [ [ [ [ [ [ [ [ [ [ [ [ [ [ [ "
};
